<svg width="48" height="48" viewBox="0 0 48 48" fill="none" xmlns="http://www.w3.org/2000/svg">
<path d="M9.11111 43C7.98056 43 7.01239 42.5869 6.20661 41.7608C5.4022 40.9332 5 39.9389 5 38.7778V9.22222C5 8.06111 5.4022 7.06678 6.20661 6.23922C7.01239 5.41307 7.98056 5 9.11111 5H37.8889C39.0194 5 39.9876 5.41307 40.7934 6.23922C41.5978 7.06678 42 8.06111 42 9.22222V38.7778C42 39.9389 41.5978 40.9332 40.7934 41.7608C39.9876 42.5869 39.0194 43 37.8889 43H9.11111ZM15.2778 34.5556C15.8602 34.5556 16.3487 34.3529 16.7434 33.9476C17.1367 33.5436 17.3333 33.0426 17.3333 32.4444C17.3333 31.8463 17.1367 31.3446 16.7434 30.9392C16.3487 30.5353 15.8602 30.3333 15.2778 30.3333C14.6954 30.3333 14.2068 30.5353 13.8122 30.9392C13.4189 31.3446 13.2222 31.8463 13.2222 32.4444C13.2222 33.0426 13.4189 33.5436 13.8122 33.9476C14.2068 34.3529 14.6954 34.5556 15.2778 34.5556ZM15.2778 26.1111C15.8602 26.1111 16.3487 25.9084 16.7434 25.5031C17.1367 25.0992 17.3333 24.5981 17.3333 24C17.3333 23.4019 17.1367 22.9001 16.7434 22.4948C16.3487 22.0909 15.8602 21.8889 15.2778 21.8889C14.6954 21.8889 14.2068 22.0909 13.8122 22.4948C13.4189 22.9001 13.2222 23.4019 13.2222 24C13.2222 24.5981 13.4189 25.0992 13.8122 25.5031C14.2068 25.9084 14.6954 26.1111 15.2778 26.1111ZM15.2778 17.6667C15.8602 17.6667 16.3487 17.464 16.7434 17.0587C17.1367 16.6547 17.3333 16.1537 17.3333 15.5556C17.3333 14.9574 17.1367 14.4557 16.7434 14.0503C16.3487 13.6464 15.8602 13.4444 15.2778 13.4444C14.6954 13.4444 14.2068 13.6464 13.8122 14.0503C13.4189 14.4557 13.2222 14.9574 13.2222 15.5556C13.2222 16.1537 13.4189 16.6547 13.8122 17.0587C14.2068 17.464 14.6954 17.6667 15.2778 17.6667ZM23.5 34.5556H31.7222C32.3046 34.5556 32.7925 34.3529 33.1858 33.9476C33.5804 33.5436 33.7778 33.0426 33.7778 32.4444C33.7778 31.8463 33.5804 31.3446 33.1858 30.9392C32.7925 30.5353 32.3046 30.3333 31.7222 30.3333H23.5C22.9176 30.3333 22.4297 30.5353 22.0364 30.9392C21.6418 31.3446 21.4444 31.8463 21.4444 32.4444C21.4444 33.0426 21.6418 33.5436 22.0364 33.9476C22.4297 34.3529 22.9176 34.5556 23.5 34.5556ZM23.5 26.1111H31.7222C32.3046 26.1111 32.7925 25.9084 33.1858 25.5031C33.5804 25.0992 33.7778 24.5981 33.7778 24C33.7778 23.4019 33.5804 22.9001 33.1858 22.4948C32.7925 22.0909 32.3046 21.8889 31.7222 21.8889H23.5C22.9176 21.8889 22.4297 22.0909 22.0364 22.4948C21.6418 22.9001 21.4444 23.4019 21.4444 24C21.4444 24.5981 21.6418 25.0992 22.0364 25.5031C22.4297 25.9084 22.9176 26.1111 23.5 26.1111ZM23.5 17.6667H31.7222C32.3046 17.6667 32.7925 17.464 33.1858 17.0587C33.5804 16.6547 33.7778 16.1537 33.7778 15.5556C33.7778 14.9574 33.5804 14.4557 33.1858 14.0503C32.7925 13.6464 32.3046 13.4444 31.7222 13.4444H23.5C22.9176 13.4444 22.4297 13.6464 22.0364 14.0503C21.6418 14.4557 21.4444 14.9574 21.4444 15.5556C21.4444 16.1537 21.6418 16.6547 22.0364 17.0587C22.4297 17.464 22.9176 17.6667 23.5 17.6667Z" fill="black"/>
</svg>
