<svg width="48" height="48" viewBox="0 0 48 48" fill="none" xmlns="http://www.w3.org/2000/svg">
<g clip-path="url(#clip0_794_111)">
<path d="M32.9601 20.8199C32.1801 21.5999 30.8801 21.5999 30.1001 20.8199L21.1601 11.8999L7.06011 25.9799L5.74011 24.7199C3.40011 22.3799 3.40011 18.5799 5.74011 16.2399L14.2201 7.75993C16.5601 5.41993 20.3601 5.41993 22.7001 7.75993L32.9601 17.9999C33.7401 18.7799 33.7401 20.0399 32.9601 20.8199ZM34.3601 16.5799C35.9201 18.1399 35.9201 20.6799 34.3601 22.2399C31.8201 24.7799 29.1401 22.6799 28.7001 22.2399L21.1801 14.7199L10.0401 25.8599C9.26011 26.6399 9.26011 27.8999 10.0401 28.6799C10.8201 29.4599 12.0801 29.4599 12.8801 28.6799L22.1201 19.4399L23.5401 20.8599L14.3001 30.0999C13.5201 30.8799 13.5201 32.1399 14.3001 32.9199C15.0801 33.6999 16.3401 33.6999 17.1401 32.9199L26.3801 23.6799L27.8001 25.0999L18.5601 34.3399C17.7801 35.1199 17.7801 36.3799 18.5601 37.1599C19.3401 37.9399 20.6001 37.9399 21.3801 37.1599L30.6201 27.9199L32.0401 29.3399L22.8001 38.5799C22.0201 39.3599 22.0201 40.6199 22.8001 41.3999C23.5801 42.1799 24.8401 42.1799 25.6201 41.3999L42.2601 24.7199C44.6001 22.3799 44.6001 18.5799 42.2601 16.2399L33.7801 7.75993C31.4801 5.45993 27.7601 5.41993 25.4201 7.63993L34.3601 16.5799Z" fill="black"/>
</g>
<defs>
<clipPath id="clip0_794_111">
<rect width="48" height="48" fill="white"/>
</clipPath>
</defs>
</svg>
