<svg width="48" height="48" viewBox="0 0 48 48" fill="none" xmlns="http://www.w3.org/2000/svg">
<path d="M38.6 17.8L45 24.2L42.2 27L35.8 20.6C35.1 21 34.35 21.3333 33.55 21.6C32.75 21.8667 31.9 22 31 22C28.5 22 26.375 21.125 24.625 19.375C22.875 17.625 22 15.5 22 13C22 10.5 22.875 8.375 24.625 6.625C26.375 4.875 28.5 4 31 4C33.5 4 35.625 4.875 37.375 6.625C39.125 8.375 40 10.5 40 13C40 13.9 39.8667 14.75 39.6 15.55C39.3333 16.35 39 17.1 38.6 17.8ZM31 18C32.4 18 33.5833 17.5167 34.55 16.55C35.5167 15.5833 36 14.4 36 13C36 11.6 35.5167 10.4167 34.55 9.45C33.5833 8.48333 32.4 8 31 8C29.6 8 28.4167 8.48333 27.45 9.45C26.4833 10.4167 26 11.6 26 13C26 14.4 26.4833 15.5833 27.45 16.55C28.4167 17.5167 29.6 18 31 18ZM34.9 25.4L40 30.5V40C40 41.1 39.6083 42.0417 38.825 42.825C38.0417 43.6083 37.1 44 36 44H8C6.9 44 5.95833 43.6083 5.175 42.825C4.39167 42.0417 4 41.1 4 40V12C4 10.9 4.39167 9.95833 5.175 9.175C5.95833 8.39167 6.9 8 8 8H19C18.6333 8.83333 18.3833 9.69167 18.25 10.575C18.1167 11.4583 18.05 12.3333 18.05 13.2C18.05 16.8333 19.3333 19.8667 21.9 22.3C24.4667 24.7333 27.5167 25.95 31.05 25.95C31.6833 25.95 32.3167 25.9083 32.95 25.825C33.5833 25.7417 34.2333 25.6 34.9 25.4Z" fill="black"/>
</svg>
